<?xml version="1.0" encoding="utf-8"?>
<!-- Generator: Adobe Illustrator 24.1.1, SVG Export Plug-In . SVG Version: 6.00 Build 0)  -->
<svg version="1.1" id="Layer_1" xmlns="http://www.w3.org/2000/svg" xmlns:xlink="http://www.w3.org/1999/xlink" x="0px" y="0px"
	 viewBox="0 0 260 260" style="enable-background:new 0 0 260 260;" xml:space="preserve">
<style type="text/css">
	.st0{fill:#4C5563;}
	.st1{opacity:0.5;fill:#4C5563;enable-background:new    ;}
</style>
<path class="st0" d="M130,130c-2.2,0-4.3-0.4-6.4-1.1l-104.7-42c-8.7-3.5-13-13.4-9.5-22.2c1.7-4.3,5.2-7.8,9.5-9.5l104.7-41.9
	c2-0.8,4.2-1.2,6.4-1.2c2.2,0,4.3,0.4,6.3,1.2l104.8,41.9c8.7,3.5,13,13.4,9.5,22.2c-1.7,4.3-5.2,7.8-9.5,9.5l-104.8,42
	C134.3,129.6,132.2,130,130,130z"/>
<path class="st1" d="M247,128.6l-21.8-8.8L140.1,154c-6.5,2.6-13.7,2.6-20.2,0l-85.1-34.1l-21.9,8.8c-3.9,1.6-5.8,6-4.2,9.9
	c0.8,1.9,2.3,3.4,4.2,4.2l114.3,45.7c1.8,0.7,3.8,0.7,5.6,0l114.2-45.7c3.9-1.6,5.8-6,4.2-9.9C250.5,130.9,249,129.4,247,128.6
	L247,128.6z"/>
<path class="st0" d="M247,187.6l-21.8-8.7l-85.1,34c-6.5,2.6-13.7,2.6-20.2,0l-85.1-34l-21.9,8.7c-3.9,1.6-5.8,6-4.2,9.9
	c0.8,1.9,2.3,3.4,4.2,4.2l114.3,45.7c1.8,0.7,3.8,0.7,5.6,0l114.2-45.7c3.9-1.6,5.8-6,4.2-9.9C250.5,189.9,249,188.4,247,187.6
	L247,187.6z"/>
</svg>
